<svg width="1731" height="1754" viewBox="0 0 1731 1754" fill="none" xmlns="http://www.w3.org/2000/svg">
<path d="M18.0222 1383.05C18.242 1381.41 17.8822 1380.14 16.9032 1379.27C16.6635 1375.18 16.424 1371.08 16.1842 1366.98C17.363 1361.78 17.2827 1356.68 15.7442 1351.66C15.8641 1344.44 15.9838 1337.24 16.0837 1330.03C18.5612 1262.91 15.2643 1195.87 14.8447 1128.79C14.6849 1104.16 12.6275 1079.83 16.4037 1054.69C18.7214 1039.2 12.9275 1021.35 13.1872 1003.89C13.447 986.381 17.4829 977.446 30.1702 976.842C66.0943 975.123 101.998 972.138 137.902 970.287C156.004 969.361 165.215 983.113 165.634 1009.69C166.513 1065.19 166.514 1065.08 204.376 1064.53C225.974 1064.23 247.572 1064.68 269.17 1064.15C281.558 1063.85 286.733 1068.1 286.713 1089.94C286.673 1120.31 296.603 1149.33 295.584 1183.12C303.436 1177.4 308.371 1172.43 314.285 1170.05C321.638 1167.08 326.393 1159.55 327.232 1147.34C328.371 1130.87 330.069 1114.47 331.528 1098.04C335.164 1083.74 336.902 1068.7 337.102 1053.67C337.502 1024.14 348.191 1002.74 360.998 982.396C372.826 963.638 389.151 965.394 404.016 962.599C418.022 959.973 429.51 956.762 440.739 940.252C448.931 928.2 461.678 916.942 475.164 915.355C483.456 914.373 489.47 922.76 494.944 930.958C506.593 948.431 508.092 968.417 497.962 987.93C492.487 998.509 490.969 1008.84 492.128 1021.59C493.766 1039.54 493.545 1057.33 490.788 1075.49C484.075 1119.74 501.418 1148.17 522.836 1173.01C527.651 1178.61 533.206 1182.8 538.421 1187.64C543.296 1200.27 558.7 1199.01 557.801 1219.26L558.301 1220.16L557.721 1219.35C547.172 1220.79 536.623 1222.22 526.073 1223.64C526.073 1223.64 525.713 1223.3 525.713 1223.32C516.383 1210.83 478.9 1204.6 470.129 1214.25C466.753 1217.97 466.174 1222.58 469.111 1227.57C479.72 1261.76 492.906 1293.72 508.011 1324C507.512 1327.76 507.033 1331.5 506.533 1335.26C503.077 1339.76 501.438 1345.33 501.977 1352.17C499.6 1357.59 500.938 1361.39 504.435 1364.26C504.834 1366.26 505.255 1368.24 505.654 1370.25C503.277 1377.9 503.316 1385.02 507.752 1391.19C508.131 1402.19 508.511 1413.18 508.89 1424.18C502.956 1428.16 496.962 1428.48 490.908 1424.78C483.855 1396.22 470.889 1372.78 460.299 1347.22C449.73 1321.68 449.71 1320.51 431.288 1334.58C425.574 1338.94 418.64 1349.56 413.326 1342.95C401.877 1328.74 390.349 1337.6 378.621 1336.92C360.999 1335.9 357.323 1348.37 359.72 1370.11C352.547 1383.73 343.096 1388.93 331.448 1388.61C321.717 1388.32 311.948 1390 302.198 1391.01C296.803 1391.57 292.827 1394.76 289.83 1402.28C279.76 1427.44 270.03 1431.88 251.369 1423.19C245.674 1420.53 239.2 1420.85 233.086 1420.78C197.102 1420.4 161.098 1420.49 125.114 1419.93C120.219 1419.85 116.443 1422.85 112.108 1424.72C92.2076 1433.32 72.0476 1440.44 56.4632 1410.59C55.5841 1408.91 53.8661 1406.87 52.7072 1407.06C40.2996 1409.2 34.4459 1395.31 27.1332 1385C24.0763 1384.28 21.0592 1383.68 18.0222 1383.05ZM485.734 1188.52C483.856 1181.87 481.798 1174.32 476.224 1173.01C472.208 1172.09 471.428 1177.83 472.167 1182.37C473.386 1189.83 475.624 1196.85 481.938 1196.74C484.835 1196.68 486.133 1193.26 485.734 1188.52ZM63.1967 1386.49C75.8241 1391.97 84.1562 1393.71 94.1062 1384.13C83.5568 1376.5 75.4045 1377.18 63.1967 1386.49Z" fill="#0C0909"/>
<path d="M1677.22 1180.85C1682.12 1184.01 1687.25 1182.95 1692.33 1182.65C1700.12 1192.58 1711.13 1186.31 1719.74 1195.29C1726.73 1202.6 1730.93 1209.34 1730.87 1222.26C1730.55 1286.41 1730.77 1350.54 1730.33 1414.69C1730.17 1440.44 1722.02 1452.61 1704.51 1451.51C1663.43 1448.96 1622.4 1444.97 1581.34 1441.65C1550.55 1439.17 1519.74 1436.79 1488.95 1434.47C1481.62 1433.92 1474.68 1432.45 1469.11 1424.31C1463.95 1416.77 1457.18 1416.56 1450.43 1416.03C1417.06 1413.43 1383.73 1410.03 1350.35 1408.06C1337.88 1407.33 1332.75 1400.37 1333.5 1381.82C1334.08 1367.69 1335.56 1353.21 1332.07 1339.27C1331.91 1263.42 1331.75 1187.58 1331.59 1111.74C1335.74 1066.12 1332.95 1020.33 1332.77 974.65C1332.73 962.108 1333.27 951.019 1338.96 941.347C1340.8 924.063 1339.42 906.817 1338.74 889.551C1341.72 882.411 1341.12 874.552 1340.88 866.77C1359.22 860.026 1378.12 866.052 1396.56 861.348C1401.94 863.993 1407.17 863.861 1412.21 859.648C1424.57 859.667 1436.94 859.705 1449.31 859.724C1457.56 864.73 1465.79 864.427 1474 859.592C1482.76 861.027 1491.95 856.928 1500.24 864.106C1501.34 896.767 1499.58 928.842 1507.87 961.598C1516.42 995.392 1511.39 1033.3 1510.77 1069.44C1510.21 1101.78 1510.21 1101.76 1532.59 1100.25C1574.7 1097.42 1616.78 1096.94 1658.84 1103.39C1668.97 1104.93 1672.35 1111.28 1672.31 1124.67C1672.27 1136.75 1672.25 1148.84 1672.6 1160.89C1672.76 1168.07 1671.25 1176.45 1677.22 1180.85Z" fill="#0C0909"/>
<path d="M973.396 1492.63C974.495 1516.3 979.929 1538.55 986.563 1559.48C996.433 1590.73 998.192 1627.07 1014.89 1654.14C1020.33 1662.96 1015.27 1671.92 1010.02 1676.77C1000.21 1685.82 1003.67 1690.17 1012.1 1692.66C1019.97 1694.98 1022.51 1703.77 1025.38 1712.74C1028.18 1721.49 1026.3 1727.53 1020.49 1730.82C995.873 1744.66 970.978 1756.47 944.025 1753.07C929.78 1751.28 925.943 1743.47 934.075 1725.3C943.826 1703.54 956.113 1684.18 967.742 1664.34C970.879 1658.98 974.336 1654.39 973.556 1646.91C968.082 1593.96 954.515 1545.75 933.696 1501.87C930.319 1487.29 925.824 1471.31 917.033 1464.73C895.694 1448.77 888.901 1417.24 878.951 1390.68C864.685 1352.56 855.055 1310.7 843.446 1270.43C842.208 1262.48 838.771 1261.65 834.795 1265.59C832.078 1268.3 830.919 1272.28 835.075 1275.23C834.615 1277.97 834.175 1280.71 833.716 1283.45C832.757 1284.48 831.778 1285.54 830.819 1286.58C831.459 1287.28 832.098 1287.98 832.737 1288.7C831.678 1294.1 830.619 1299.48 829.56 1304.89C826.163 1307.78 825.125 1311.99 826.244 1317.45C825.245 1322.3 824.265 1327.18 823.266 1332.03C817.432 1338.93 815.714 1347.82 817.392 1358.34C816.933 1362.39 816.453 1366.41 815.993 1370.45C812.377 1376.4 811.818 1382.66 815.114 1389.3C814.535 1397.39 813.936 1405.47 813.356 1413.56C810.459 1417.28 810.04 1421.59 811.978 1426.42C808.641 1439.1 808.98 1451.96 811.118 1464.9C809.64 1532.59 798.771 1599.87 818.751 1667.33C830.599 1707.36 823.966 1711.36 799.351 1716.03C777.992 1720.09 757.013 1728.98 735.255 1728.21C727.023 1727.91 716.333 1731.97 713.836 1714.18C711.618 1698.27 718.791 1685.46 727.383 1682.42C744.446 1676.38 755.375 1658.64 768.801 1645.3C776.873 1637.27 778.951 1628.32 779.39 1615.44C781.248 1561.71 773.716 1508.75 774.016 1455.08C774.176 1428.75 772.437 1402.6 775.274 1376.18C776.753 1362.54 778.092 1347.58 772.637 1334.24C772.657 1328.31 772.677 1322.36 772.697 1316.43C776.513 1284.71 778.751 1252.88 775.834 1220.69C776.314 1196.85 777.532 1173.15 780.988 1149.8C784.765 1132.36 774.455 1136.65 769.141 1133.23C769.341 1129.32 769.521 1125.43 769.72 1121.52C772.737 1116.34 773.516 1110.28 772.977 1103.71C773.756 1101.38 774.556 1099.08 775.335 1096.76C791.998 1055.73 792.637 1007.33 803.626 963.6C806.943 950.415 798.451 947.203 791.458 946.731C776.413 945.711 761.908 941.518 747.882 933.508C746.403 929.674 744.905 925.82 743.426 921.985C745.165 909.99 743.486 899.091 738.631 889.192C738.372 886.51 738.132 883.827 737.872 881.145C738.991 865.542 739.111 850.052 735.514 834.978C735.235 830.577 734.935 826.194 734.655 821.793C734.875 805.944 736.654 793.08 749.9 788.414C760.15 784.806 757.872 772.811 752.677 763.649C744.025 748.443 745.604 733.709 751.598 717.803C760.869 693.171 755.754 677.492 736.673 671.145C722.707 666.498 708.661 662.286 694.615 658.035C689.979 656.637 684.985 655.466 684.426 647.004C683.906 639.183 687.782 634.291 692.117 631.684C703.146 625.016 714.176 621.03 726.224 628.642C737.772 635.934 749.581 644.926 762.927 637.049C769.501 639.296 776.094 641.563 782.667 643.811C794.056 658.394 809.98 650.8 822.208 661.209L822.587 661.757C820.589 673.204 834.296 673.393 830.739 685.294C825.984 701.18 806.063 715.045 793.676 711.834C783.146 709.114 776.194 712.061 778.791 731.064C776.713 739.905 776.134 748.802 778.332 757.793C776.873 765.444 775.914 773.075 778.311 780.726C779.011 804.754 778.891 828.914 780.629 852.772C782.268 875.214 787.782 878.935 802.247 872.059C817.512 864.805 832.138 856.909 843.326 838.284C850.14 826.95 861.248 828.026 870.519 823.946C886.803 822.152 884.665 804.395 884.745 788.565C884.705 784.712 884.665 780.839 884.625 776.986C883.226 759.833 887.842 748.764 899.59 744.646C902.567 743.607 905.264 741.567 906.023 736.504C906.743 735.938 907.302 735.144 907.722 734.105C918.291 728.363 929.281 727.003 940.469 725.416C964.545 721.997 980.509 732.915 988.101 760.929C997.772 796.688 991.538 820.527 970.739 844.102C946.723 871.322 943.486 886.888 959.031 923.648C961.488 934.774 963.925 945.881 966.383 957.007C964.744 960.861 965.185 964.204 967.562 967.038C967.642 977.427 967.722 987.817 967.782 998.206C965.045 1002.65 964.145 1007.63 965.744 1013.34C965.384 1015.87 965.025 1018.4 964.645 1020.93C960.609 1027.75 955.974 1034.31 960.19 1044.49C959.55 1051.72 958.891 1058.96 958.251 1066.19C955.274 1072.31 954.894 1078.7 957.272 1085.4C956.952 1087.44 956.613 1089.46 956.293 1091.5C952.997 1094.36 951.878 1098.64 952.497 1104.05C951.998 1104.82 951.598 1105.73 951.358 1106.75C947.741 1107.67 945.464 1110.81 944.305 1115.85C942.847 1116.7 941.388 1117.55 939.93 1118.4C936.114 1117.84 933.556 1120.01 932.657 1125.71C927.622 1134.55 922.587 1143.39 917.572 1152.25C915.754 1152.03 913.936 1151.82 912.118 1151.59L911.918 1151.37C906.843 1139.92 902.487 1139.6 899.011 1153.14C897.692 1161.13 899.71 1168.2 901.808 1175.28C900.689 1182.08 900.949 1188.52 904.166 1194.13C904.545 1199.88 904.944 1205.62 905.324 1211.36C905.803 1223.53 906.703 1235.69 904.425 1247.71C902.148 1253.3 901.329 1259.3 902.128 1265.75C901.588 1292.53 906.823 1316.9 916.373 1339.47C916.773 1342.12 917.192 1344.78 917.592 1347.43C916.533 1366.96 920.649 1383.37 931.059 1396.05C931.159 1397.07 931.478 1397.94 931.997 1398.62C931.578 1404.51 933.177 1408.36 937.213 1409.74C937.413 1410.69 937.771 1411.46 938.331 1412.03C937.971 1418.92 939.51 1424.06 944.365 1426.14C944.365 1426.14 944.445 1426.29 944.465 1426.29C944.905 1433.83 947.462 1438.99 952.397 1441.48C957.032 1451.26 961.688 1461.03 966.323 1470.82C965.704 1476.46 967.102 1480.43 970.779 1482.53C971.658 1485.91 972.537 1489.27 973.396 1492.63Z" fill="#0C0909"/>
<path d="M297.042 696.344C294.705 696.174 292.367 696.004 290.029 695.834C287.711 694.38 285.414 691.754 283.076 691.64C274.005 691.244 263.296 685.936 256.703 697.553C249.55 710.153 256.483 723.753 260.459 735.484C268.731 759.947 275.184 785.222 279.46 811.762C278.64 812.971 277.842 814.18 277.022 815.389C261.958 813.67 247.232 805.982 231.867 810.232C228.471 809.892 225.075 809.552 221.698 809.212C209.25 801.486 195.944 800.617 182.777 799.313C129.53 794.081 76.2632 789.321 23.0365 784.031C15.1844 783.257 7.33266 781.009 0 774.662C4.03596 766.275 9.33035 764.745 14.1655 763.63C35.4442 758.738 56.7824 754.261 78.161 750.294C93.2859 747.498 108.531 745.93 123.017 738.204C125.234 737.789 127.452 737.373 129.67 736.958C143.776 742.36 157.002 734.804 170.349 730.478C177.082 728.287 179.3 720.164 177.002 711.078C169.33 680.911 161.738 650.649 149.41 623.655C148.371 622.919 147.332 622.182 146.293 621.559C146.293 621.672 146.333 621.2 146.333 621.2C147.172 619.651 147.992 618.083 148.811 616.515C152.248 610.036 155.684 603.556 159.14 597.077C165.894 598.607 172.667 600.118 179.42 601.63C198.901 613.247 219 620.992 240.119 622.144C241.398 622.409 242.677 622.673 243.956 622.938C245.734 628.302 248.471 629.965 252.247 627.49C253.706 627.755 255.184 628 256.663 628.246C267.552 635.046 277.822 645.02 290.549 642.281C293.646 642.149 296.723 642.035 299.82 641.903C302.038 646.342 304.775 647.532 308.151 644.793C315.684 648.326 323.196 651.877 330.728 655.391C337.222 665.799 345.354 666.913 354.145 664.212C356.663 665.61 359.201 667.008 361.718 668.406C375.145 682.139 392.846 681.78 406.532 698.12C392.507 700.065 379.32 699.669 365.973 698.006C343.036 695.173 320.079 689.827 297.042 696.344Z" fill="#0C0909"/>
<path d="M65.2145 99.968C74.2854 113.323 83.357 126.678 92.408 140.034C95.1652 157.866 103.317 168.312 114.386 174.829L114.905 175.793C115.025 187.202 121.419 192.416 126.014 199.065C137.862 216.198 141.898 215.121 149.81 193.379C155.605 177.474 160.779 161.058 166.813 145.361C173.506 127.944 177.683 127.963 185.235 144.416C186.953 148.156 188.352 152.218 189.69 156.298C213.087 227.627 236.603 298.88 259.64 370.473C263.596 382.77 268.591 395.37 268.032 411.011C261.718 408.347 259.92 401.679 257.382 396.333C239.52 358.667 221.938 320.717 203.956 283.182C195.205 264.916 189.251 265.633 181.519 285.052C177.383 295.442 173.507 306.096 169.75 316.787C163.756 333.826 155.365 338.624 143.816 328.273C142.138 323.72 140.46 319.186 138.781 314.634C139.76 305.605 138.442 298.445 131.668 295.706C130.929 294.516 130.19 293.345 129.451 292.155C127.753 276.193 121.818 264.235 113.107 254.885C112.448 253.619 111.788 252.373 111.109 251.107C111.808 245.78 110.229 242.852 106.673 242.04C105.874 240.547 105.095 239.036 104.295 237.544C100.599 210.663 89.0913 191.282 75.8845 173.488C75.2052 172.166 74.5453 170.824 73.866 169.502C72.4874 149.403 61.8981 137.276 55.045 121.824C51.3887 113.588 42.6171 104.898 47.692 94.8111C52.4073 85.4039 57.5627 102.122 63.7365 100.421C64.216 100.27 64.715 100.119 65.2145 99.968Z" fill="#0C0909"/>
<path d="M1336.06 180.269C1349.45 171.996 1359.02 155.675 1371.03 144.492C1381.06 145.134 1388.37 136.841 1390.41 124.298C1392.77 109.847 1383 104.558 1376.06 98.6646C1356.74 82.2114 1356.68 82.3625 1370.73 57.9755C1382.88 45.7726 1395.72 34.8353 1406.99 21.0834C1421.44 3.4401 1437.28 -2.69916 1455.42 1.05995C1451.69 20.5733 1439 28.9416 1430.99 43.128C1425.29 53.1964 1421.88 62.4336 1432.29 69.9707C1444.11 78.5278 1456.18 86.3483 1468.15 94.4899L1468.35 94.7921C1467.11 107.656 1457.6 111.189 1454.26 121.691C1448.75 125.658 1443.24 129.606 1437.72 133.573C1418.46 139.901 1401.54 153.389 1385.77 170.39C1384.49 171.372 1383.22 172.354 1381.94 173.356C1370.83 175.944 1360.54 181.913 1350.53 189.337C1343.62 194.494 1337.58 194.682 1336.06 180.269Z" fill="#0C0909"/>
<path d="M515.064 1448.17C517.322 1463.03 521.558 1476.44 528.171 1488.31C533.846 1498.47 532.367 1505.42 523.116 1505.48C513.665 1505.54 502.796 1509.28 496.263 1495.24C490.908 1483.74 498.36 1454.19 509.309 1439.04C511.208 1442.08 513.126 1445.12 515.064 1448.17Z" fill="#0C0909"/>
<path d="M1199.32 666.234C1198 665.421 1195.22 664.987 1194.66 663.117C1192.77 656.751 1196.42 653.445 1199.28 650.555C1219.14 630.437 1239.08 610.527 1259.02 590.598C1260.72 588.898 1262.92 588.142 1264.37 586.14C1271.71 575.958 1283.91 568.27 1283.28 552.648C1282.6 536.081 1270.05 531.472 1260.48 526.24C1252.41 521.82 1246.95 512.45 1241.02 504.422C1234.18 495.166 1238.7 487.364 1244.41 480.243C1265.63 453.797 1289.43 432.829 1312.61 410.557C1343.91 380.466 1375.3 350.487 1406.59 320.339C1411.23 315.862 1416.82 306.851 1421.12 315.125C1425.11 322.813 1417.66 329.463 1413.98 334.922C1390.13 370.322 1365.85 405.117 1342.02 440.536C1326.01 464.318 1326.59 468.342 1346.41 483.851C1356.4 491.671 1366.51 499.114 1376.52 506.84C1390.23 517.437 1391.15 530.943 1377.78 541.276C1349.19 563.396 1319.56 582.721 1291.29 605.653C1265.57 626.508 1237.54 639.466 1211.73 659.717C1208.13 662.531 1203.99 663.834 1199.32 666.234Z" fill="#0C0909"/>
<path d="M565.374 404.626C564.794 409.556 567.832 419.228 562.037 420.89C556.423 422.496 556.123 412.182 554.305 406.496C538.501 357.288 530.949 303.716 516.703 253.563C507.053 219.598 502.756 214.763 478.8 226.89C475.404 228.609 472.167 230.951 468.751 232.576C465.614 234.068 462.437 233.52 460.639 229.025C459.2 225.435 460.079 221.469 462.017 218.692C481.538 190.942 500.459 162.135 522.897 139.278C529.31 132.742 535.304 132.591 537.741 147.061C551.947 231.367 555.424 318.091 565.374 404.626Z" fill="#0C0909"/>
<path d="M1029.98 195.325C1044.14 196.571 1054.97 196.647 1065.64 198.706C1076.31 200.784 1080.21 210.304 1074 224.264C1049.54 279.102 1023.53 332.277 993.975 381.523C990.698 387.001 986.363 394.728 981.048 389.344C975.014 383.242 978.63 373.646 981.247 366.903C993.735 334.695 1002.15 299.749 1013.02 266.464C1020.75 242.795 1018.51 233.615 1003.31 220.033C999.05 216.236 992.697 214.196 994.455 204.354C996.073 195.287 1002.11 195.797 1007.22 195.362C1008.76 195.23 1010.3 195.325 1011.84 195.325C1019.01 195.325 1026.2 195.325 1029.98 195.325Z" fill="#0C0909"/>
</svg>
